<?xml version="1.0" encoding="UTF-8"?>
<svg width="350px" height="67px" viewBox="0 0 350 67" version="1.1" xmlns="http://www.w3.org/2000/svg" xmlns:xlink="http://www.w3.org/1999/xlink">
    <!-- Generator: Sketch 52.3 (67297) - http://www.bohemiancoding.com/sketch -->
    <title>logo</title>
    <desc>Created with Sketch.</desc>
    <g id="Page-1" stroke="none" stroke-width="1" fill="none" fill-rule="evenodd">
        <g id="logo" fill="#FFFFFF">
            <g id="Version_2">
                <path d="M320.7,25 C320.7,20.5 320.7,16.4 320.7,12.3 C320.7,8.3 320.7,4.2 320.7,0 C324.4,0 327.9,0 331.6,0 C331.6,21.1 331.6,42.3 331.6,63.7 C328.1,63.7 324.5,63.7 320.7,63.7 C320.7,61.6 320.7,59.6 320.7,57.6 C320.3,57.6 320,57.6 320,57.6 C313.8,65 305.9,66.1 297.3,63.3 C288.5,60.4 284.4,53.6 283.3,44.8 C282.4,37.7 283.5,31 288,25.1 C295.5,15.3 312.9,14.9 319.6,24.1 C319.8,24.4 320.1,24.5 320.7,25 Z M294.4,39.5 C294.4,47.8 297.8,52.8 303.2,54.6 C309.6,56.7 316.2,54 319.1,48.2 C322.3,41.8 320.5,33.1 315.1,29.4 C310.8,26.4 306,26.1 301.4,28.5 C296.3,31 294.4,35.6 294.4,39.5 Z" id="Shape" fill-rule="nonzero"></path>
                <path d="M188.4,40.7 C188.4,55.3 177.7,65 162.3,64.1 C153.1,63.6 145.5,59.8 141.7,50.9 C138,42 138.5,33.2 144.8,25.6 C151.1,18 159.7,16.4 169,17.9 C181.1,19.8 188.4,28.6 188.4,40.7 Z M164,27.1 C156.3,27.1 150.9,32.7 150.9,40.8 C150.8,49 156.3,54.9 163.9,55 C171.5,55.1 177.2,49.2 177.2,41.1 C177.2,32.8 171.8,27.1 164,27.1 Z" id="Shape" fill-rule="nonzero"></path>
                <path d="M247.7,63.7 C243.9,63.7 240.4,63.7 236.7,63.7 C236.7,48.5 236.7,33.3 236.7,17.9 C240.3,17.9 243.9,17.9 247.7,17.9 C247.7,20.5 247.7,23 247.7,26.1 C253.1,18.2 260.3,16.4 268.5,17.9 C276,19.2 280.9,25 281.1,32.9 C281.4,43 281.2,53.2 281.2,63.6 C277.6,63.6 274,63.6 270,63.6 C270,62.8 270,61.9 270,61 C270,53.6 270,46.3 270,38.9 C270,32.9 267.3,29.1 262.3,28.2 C256.4,27.1 250.8,29.8 248.8,35.1 C248.1,37 247.7,39.2 247.7,41.3 C247.6,47.9 247.6,54.5 247.6,61.1 C247.7,61.9 247.7,62.7 247.7,63.7 Z" id="Path"></path>
                <path d="M222.6,17.9 C226.5,17.9 230,17.9 233.6,17.9 C233.6,33.2 233.6,48.3 233.6,63.7 C230,63.7 226.4,63.7 222.6,63.7 C222.6,61.2 222.6,58.8 222.6,56.4 C222.3,56.4 222,56.4 222,56.4 C222,56.4 222,56.4 222,56.4 C217.6,63.8 208.8,65.4 201.7,63.7 C194.9,62.1 190.6,57 190.2,48.5 C189.7,38.4 190.1,28.3 190.1,18 C193.8,18 197.4,18 201.3,18 C201.3,22.2 201.3,26.2 201.3,30.2 C201.3,34.3 201.3,38.3 201.3,42.4 C201.3,49.4 204.3,53.3 210,53.7 C216.6,54.1 221.8,50.1 222.4,43.4 C222.9,38.2 222.6,32.9 222.7,27.7 C222.6,24.5 222.6,21.3 222.6,17.9 Z" id="Path"></path>
                <path d="M102.9,59.1 C103.7,57.8 104.4,56.5 105.1,55.3 C105.8,54.1 106.4,53 107.2,51.7 C111.5,54.1 116,55.7 120.9,55.6 C121.6,55.6 122.3,55.6 122.9,55.5 C124.9,55.1 126.9,54.5 127.4,52 C127.8,49.5 126.3,47.9 124.2,47.1 C120.7,45.7 117,44.6 113.4,43.4 C111.7,42.8 108.9,41.6 108.9,41.6 C108.9,41.6 108.8,39.1 108.7,37.7 C108.5,34.1 106.1,28.9 105.6,27.8 C105.3,27.1 104.3,25.6 104.3,25.6 C104.3,25.6 105.2,24 105.6,23.4 C108.6,19.5 112.7,17.9 117.4,17.3 C124.6,16.4 131.3,18.1 137.8,21.9 C136.4,24.6 134.6,28.4 133.6,30.6 C129.4,28.2 125.9,26.6 121.6,26 C120.2,25.9 118,26 116.4,26.5 C113.3,27.6 112.8,30.9 115.5,32.8 C116.8,33.7 118.3,34.3 119.8,34.8 C122.8,35.9 125.9,36.7 128.9,37.9 C135.7,40.6 138.8,45.1 138.4,51 C137.9,57.2 134.1,61.6 127.1,63.3 C119.1,65.3 111.5,64 104.3,60.1 C103.9,59.9 103.5,59.5 102.9,59.1 Z" id="Path"></path>
                <path d="M103.2,34.1 C100.7,26 95.4,20.2 87.5,17.5 C76.9,13.9 67.7,17 59.9,25 C55,30 49.7,35.5 44.7,40.4 L48.6,45 C48.6,45 55.3,52.2 56.1,53 C58.2,55.2 60.3,57.4 62.7,59.3 C65,61.3 67.7,63.2 70.5,64.3 C80,67.8 88.9,66.1 96.2,59.2 C103.2,52.5 106.2,43.9 103.2,34.1 Z M92.4,45.2 C90.5,51 85.5,54.6 79.1,54.6 C75.5,54.6 72.3,53.4 69.7,50.9 C66.8,48.1 64,45.2 61.1,42.3 C60.6,41.9 59.8,40.9 59.8,40.9 C59.8,40.9 60.4,40.2 60.9,39.7 C64.1,36.6 67.1,33.2 70.5,30.3 C75.2,26.3 81.9,26.1 87,29.5 C92,33 94.3,39.5 92.4,45.2 Z" id="Shape" fill-rule="nonzero"></path>
                <path d="M41.1,44.9 C38.9,47 36.8,49.1 34.5,51.3 C27.6,57.9 15.6,54.7 12.5,45.7 C10.4,39.7 12.6,32.7 17.5,29.5 C23.3,25.9 29.9,26.4 34.9,30.8 C35.4,31.2 39,34.8 40.8,36.4 C43.4,33.8 45.9,31.5 48.6,28.9 C47.6,27.9 46.8,27 46,26.2 C41.6,22 37.2,18 30.9,16.6 C13,12.6 -3.3,29.4 1.4,47.2 C6.4,65.8 29.4,72.4 43,58.6 C44.9,56.7 46.8,54.9 48.6,53 C47.8,52.2 41.1,44.9 41.1,44.9 Z" id="Path"></path>
            </g>
            <path d="M341.8,58.5 L341.8,61.4 L340.8,61.4 L340.8,54.4 L343.1,54.4 C344.1,54.4 344.9,54.6 345.4,54.9 C345.9,55.2 346.2,55.7 346.2,56.4 C346.2,57.3 345.6,57.9 344.5,58.3 L346.8,61.4 L345.6,61.4 L343.5,58.5 L341.8,58.5 Z M341.8,57.8 L343.2,57.8 C343.9,57.8 344.4,57.7 344.7,57.5 C345,57.3 345.2,56.9 345.2,56.5 C345.2,56 345,55.7 344.7,55.5 C344.4,55.3 343.8,55.2 343.1,55.2 L341.8,55.2 L341.8,57.8 Z" id="Shape" fill-rule="nonzero"></path>
            <path d="M343.1,64.3 C339.5,64.3 336.7,61.4 336.7,57.9 C336.7,54.4 339.6,51.5 343.1,51.5 C346.7,51.5 349.5,54.4 349.5,57.9 C349.5,61.4 346.6,64.3 343.1,64.3 Z M343.1,52.3 C340.1,52.3 337.6,54.8 337.6,57.8 C337.6,60.8 340.1,63.3 343.1,63.3 C346.1,63.3 348.6,60.8 348.6,57.8 C348.6,54.8 346.1,52.3 343.1,52.3 Z" id="Shape" fill-rule="nonzero"></path>
        </g>
    </g>
</svg>